<?xml version="1.0" encoding="utf-8"?>
<!-- Generated by IcoMoon.io -->
<!DOCTYPE svg PUBLIC "-//W3C//DTD SVG 1.1//EN" "http://www.w3.org/Graphics/SVG/1.1/DTD/svg11.dtd">
<svg version="1.1" xmlns="http://www.w3.org/2000/svg" xmlns:xlink="http://www.w3.org/1999/xlink" width="144" height="24" viewBox="0 0 144 24">
<svg id="ademis-feedback-icon-arrow" width="24" height="24" viewBox="0 0 24 24" x="0" y="0">
<path fill="#424242" d="M9 5.016h9.984v9.984h-1.969v-6.609l-11.625 11.625-1.406-1.406 11.625-11.625h-6.609v-1.969z"></path>
</svg>
<svg id="ademis-feedback-icon-comment" width="24" height="24" viewBox="0 0 24 24" x="24" y="0">
<path fill="#424242" d="M18 8.016v-2.016h-12v2.016h12zM14.016 14.016v-2.016h-8.016v2.016h8.016zM6 9v2.016h12v-2.016h-12zM20.016 2.016q0.797 0 1.383 0.586t0.586 1.383v12q0 0.797-0.586 1.406t-1.383 0.609h-14.016l-3.984 3.984v-18q0-0.797 0.586-1.383t1.383-0.586h16.031z"></path>
</svg>
<svg id="ademis-feedback-icon-hide" width="24" height="24" viewBox="0 0 24 24" x="48" y="0">
<path fill="#424242" d="M18 3.984h3v8.016h-8.016v9q0 0.422-0.281 0.703t-0.703 0.281h-2.016q-0.422 0-0.703-0.281t-0.281-0.703v-11.016h9.984v-3.984h-0.984v0.984q0 0.422-0.281 0.727t-0.703 0.305h-12q-0.422 0-0.727-0.305t-0.305-0.727v-3.984q0-0.422 0.305-0.703t0.727-0.281h12q0.422 0 0.703 0.281t0.281 0.703v0.984z"></path>
</svg>
<svg id="ademis-feedback-icon-continue" width="24" height="24" viewBox="0 0 24 24" x="72" y="0">
<path fill="#424242" d="M9 16.172l10.594-10.594 1.406 1.406-12 12-5.578-5.578 1.406-1.406z"></path>
</svg>
<svg id="ademis-feedback-icon-cancel" width="24" height="24" viewBox="0 0 24 24" x="96" y="0">
<path fill="#424242" d="M18.984 6.422l-5.578 5.578 5.578 5.578-1.406 1.406-5.578-5.578-5.578 5.578-1.406-1.406 5.578-5.578-5.578-5.578 1.406-1.406 5.578 5.578 5.578-5.578z"></path>
</svg>
</svg>
