<?xml version="1.0" encoding="utf-8"?>
<!-- Generated by IcoMoon.io -->
<!DOCTYPE svg PUBLIC "-//W3C//DTD SVG 1.1//EN" "http://www.w3.org/Graphics/SVG/1.1/DTD/svg11.dtd">
<svg version="1.1" xmlns="http://www.w3.org/2000/svg" xmlns:xlink="http://www.w3.org/1999/xlink" width="120" height="24" viewBox="0 0 120 24">
<svg id="ademis-feedback-icon-arrow" width="24" height="24" viewBox="0 0 24 24" x="0" y="0">
<path fill="#424242" d="M9 5.016h9.984v9.984h-1.969v-6.609l-11.625 11.625-1.406-1.406 11.625-11.625h-6.609v-1.969z"></path>
</svg>
<svg id="ademis-feedback-icon-comment" width="24" height="24" viewBox="0 0 24 24" x="24" y="0">
<path fill="#424242" d="M18 8.016v-2.016h-12v2.016h12zM14.016 14.016v-2.016h-8.016v2.016h8.016zM6 9v2.016h12v-2.016h-12zM20.016 2.016q0.797 0 1.383 0.586t0.586 1.383v12q0 0.797-0.586 1.406t-1.383 0.609h-14.016l-3.984 3.984v-18q0-0.797 0.586-1.383t1.383-0.586h16.031z"></path>
</svg>
<svg id="ademis-feedback-icon-live_help" width="24" height="24" viewBox="0 0 24 24" x="48" y="0">
<path fill="#424242" d="M15.047 10.266q0.938-0.938 0.938-2.25 0-1.641-1.172-2.836t-2.813-1.195-2.813 1.195-1.172 2.836h1.969q0-0.797 0.609-1.406t1.406-0.609 1.406 0.609 0.609 1.406-0.609 1.406l-1.219 1.266q-1.172 1.266-1.172 2.813v0.516h1.969q0-1.594 1.172-2.859zM12.984 18v-2.016h-1.969v2.016h1.969zM18.984 2.016q0.797 0 1.406 0.586t0.609 1.383v14.016q0 0.797-0.609 1.406t-1.406 0.609h-3.984l-3 3-3-3h-3.984q-0.844 0-1.43-0.609t-0.586-1.406v-14.016q0-0.797 0.586-1.383t1.43-0.586h13.969z"></path>
</svg>
<svg id="ademis-feedback-icon-hide" width="24" height="24" viewBox="0 0 24 24" x="72" y="0">
<path fill="#424242" d="M18 3.984h3v8.016h-8.016v9q0 0.422-0.281 0.703t-0.703 0.281h-2.016q-0.422 0-0.703-0.281t-0.281-0.703v-11.016h9.984v-3.984h-0.984v0.984q0 0.422-0.281 0.727t-0.703 0.305h-12q-0.422 0-0.727-0.305t-0.305-0.727v-3.984q0-0.422 0.305-0.703t0.727-0.281h12q0.422 0 0.703 0.281t0.281 0.703v0.984z"></path>
</svg>
</svg>
